<?xml version="1.0" encoding="UTF-8"?>
<svg viewBox="0 0 300 300" xmlns="http://www.w3.org/2000/svg" xmlns:xlink="http://www.w3.org/1999/xlink">
 <defs>
  <linearGradient id="q" x1="2.6375" x2=".65" y1=".82558" y2=".60078" xlink:href="#r"/>
  <linearGradient id="p" x1="1.05" x2="-.05" y1=".5" y2=".5" xlink:href="#t"/>
  <linearGradient id="u" x1="-.05" x2="1.05" y1=".5" y2=".5" xlink:href="#t"/>
  <linearGradient id="v" x1="-1.6375" x2=".35" y1=".82558" y2=".60078" xlink:href="#r"/>
  <linearGradient id="w" x1="-2.9" x2=".5" y1=".83333" y2=".53488" xlink:href="#r"/>
  <linearGradient id="x" y1=".5" y2=".5">
   <stop offset="0"/>
   <stop stop-opacity="0" offset="1"/>
  </linearGradient>
  <linearGradient id="a">
   <stop stop-color="#fff" offset="0"/>
   <stop stop-color="#fff" stop-opacity=".247" offset=".5"/>
   <stop stop-color="#fff" stop-opacity="0" offset="1"/>
  </linearGradient>
  <linearGradient id="t">
   <stop stop-color="#414141" offset="0"/>
   <stop stop-color="#414141" stop-opacity="0" offset="1"/>
  </linearGradient>
  <linearGradient id="y" x1="-.59629" x2=".5" y1="1" y2=".5">
   <stop stop-color="#24221c" offset="0"/>
   <stop stop-color="#24221c" stop-opacity="0" offset="1"/>
  </linearGradient>
  <linearGradient id="r">
   <stop offset="0"/>
   <stop stop-opacity="0" offset="1"/>
  </linearGradient>
  <radialGradient id="ab" cx="137" cy="338.49" r="5.5" gradientTransform="matrix(1.9165 0 0 7.8635 -188.34 -2542.9)" gradientUnits="userSpaceOnUse">
   <stop stop-color="#414141" offset="0"/>
   <stop stop-color="#414141" stop-opacity="0" offset="1"/>
  </radialGradient>
  <radialGradient id="z" cx="157.51" cy="367.33" r="5" gradientTransform="matrix(1.782 16.771 -2.3811 .46617 683.87 -2712.3)" gradientUnits="userSpaceOnUse" xlink:href="#a"/>
  <radialGradient id="s" cx="157.51" cy="367.33" r="5" gradientTransform="matrix(-1.782 16.771 2.3811 .46617 -536.51 -2712.3)" gradientUnits="userSpaceOnUse" xlink:href="#a"/>
  <radialGradient id="aa" cx="176.23" cy="381.86" r="5" gradientTransform="matrix(.071003 14.833 -3.6599 .032281 1472.4 -2531.7)" gradientUnits="userSpaceOnUse" xlink:href="#a"/>
  <radialGradient id="ac" cx="106.79" cy="381.29" r="79.486" gradientTransform="matrix(.59185 1.6747 -1.1382 .40077 729.3 -630.85)" gradientUnits="userSpaceOnUse" xlink:href="#a"/>
 </defs>
 <g transform="matrix(2.0344 0 0 2.0288 110.74 -396.25)">
  <g transform="matrix(-1 0 0 1 147.36 0)">
   <path d="m127.64 245.43h-11.499l-7.6659 83.897 19.165-5.2029v-78.694z" fill="#6f8a91"/>
   <path d="m121.54 245.46l-7.0071 82.271-6.0489 1.6259 7.6659-83.897h5.3901z" fill="url(#s)"/>
   <path d="m127.64 245.43h-11.499l-7.6659 83.897 19.165-5.2029v-78.694z" fill="none" stroke="url(#p)" stroke-width="1.099"/>
   <path d="m127.64 245.43h-11.499l-7.6659 83.897 19.165-5.2029v-78.694z" fill="url(#q)"/>
  </g>
  <path d="m18.88 245.43h-11.499l-7.6659 83.897 19.165-5.2029v-78.694z" fill="#6f8a91"/>
  <path d="m12.772 245.46l-7.0071 82.271-6.0489 1.6259 7.6659-83.897h5.3901z" fill="url(#s)"/>
  <path d="m18.88 245.43h-11.499l-7.6659 83.897 19.165-5.2029v-78.694z" fill="none" stroke="url(#p)" stroke-width="1.099"/>
  <path d="m18.88 245.43h-11.499l-7.6659 83.897 19.165-5.2029v-78.694z" fill="url(#q)"/>
  <path d="m19.716 245.43h11.499l7.6659 83.897-19.165-5.2029v-78.694z" fill="#3771c8"/>
  <path d="m25.824 245.46l7.0071 82.271 6.0489 1.6259-7.6659-83.897h-5.3901z" fill="url(#z)"/>
  <path d="m19.716 245.43h11.499l7.6659 83.897-19.165-5.2029v-78.694z" fill="none" stroke="url(#u)" stroke-width="1.099"/>
  <path d="m19.716 245.43h11.499l7.6659 83.897-19.165-5.2029v-78.694z" fill="url(#v)"/>
  <path d="m18.88 245.43h-11.499l-7.6659 83.897 19.165-5.2029v-78.694z" fill="#3771c8"/>
  <path d="m12.772 245.46l-7.0071 82.271-6.0489 1.6259 7.6659-83.897h5.3901z" fill="url(#s)"/>
  <path d="m18.88 245.43h-11.499l-7.6659 83.897 19.165-5.2029v-78.694z" fill="none" stroke="url(#p)" stroke-width="1.099"/>
  <path d="m18.88 245.43h-11.499l-7.6659 83.897 19.165-5.2029v-78.694z" fill="url(#q)"/>
  <path d="m13.549 253.64h11.499l3.8329 83.897-9.5824-5.2029-9.5824 5.2029 3.8329-83.897z" fill="#d40000"/>
  <path d="m20.256 253.68l3.5335 81.133 5.0906 2.764-3.8329-83.897h-4.7912v1.5e-5z" fill="url(#aa)"/>
  <path d="m13.549 253.64h11.499l3.8329 83.897-9.5824-5.2029-9.5824 5.2029 3.8329-83.897z" fill="url(#w)"/>
  <path d="m13.549 253.64h11.499l3.8329 83.897-9.5824-5.2029-9.5824 5.2029 3.8329-83.897z" fill="none" stroke="url(#ab)" stroke-width="1.099"/>
 </g>
 <path d="m203.15 149.9l-13.467-2.4734-2.4788 13.338-12.478-5.5926-5.6304 12.363-10.763-8.3867-8.4548 10.669-8.4235-10.694-10.788 8.3558-5.5941-12.379-12.494 5.5567-2.4397-13.345-13.474 2.4347 0.8566-13.535-13.671-0.8288 4.103-12.939-13.073-4.0441 7.111-11.59-11.716-7.0244 9.7058-9.5686-9.6777-9.5965 11.736-6.9907-7.077-11.611 13.085-4.0065-4.0651-12.95 13.673-0.7895-0.8169-13.537 13.467 2.4735 2.4788-13.338 12.478 5.5926 5.6304-12.363 10.763 8.3867 8.4548-10.669 8.4235 10.694 10.788-8.3558 5.5941 12.379 12.494-5.5567 2.4397 13.345 13.474-2.4347-0.8566 13.535 13.671 0.8289-4.103 12.939 13.073 4.0442-7.111 11.59 11.716 7.0245-9.7058 9.5686 9.6777 9.5965-11.736 6.9908 7.077 11.611-13.085 4.0065 4.0651 12.95-13.673 0.7895 0.8169 13.537z" fill="#a05a2c" stroke="url(#x)" stroke-width="1.002"/>
 <path d="m198.41 144.58l-12.264-2.2525-2.2574 12.146-11.363-5.0931-5.1275 11.258-9.8019-7.6376-7.6996 9.7162-7.6711-9.7384-9.8242 7.6094-5.0944-11.273-11.378 5.0603-2.2217-12.153-12.27 2.2172 0.7801-12.326-12.45-0.7548 3.7365-11.783-11.906-3.6829 6.4759-10.555-10.669-6.397 8.8389-8.714-8.8133-8.7393 10.688-6.3663-6.4449-10.574 11.916-3.6487-3.702-11.794 12.452-0.7189-0.7439-12.328 12.264 2.2525 2.2574-12.146 11.363 5.0931 5.1275-11.258 9.8019 7.6376 7.6996-9.7162 7.6711 9.7383 9.8242-7.6094 5.0944 11.273 11.378-5.0603 2.2217 12.153 12.27-2.2172-0.7801 12.326 12.45 0.7548-3.7366 11.783 11.906 3.6829-6.4759 10.555 10.669 6.397-8.8389 8.714 8.8132 8.7394-10.688 6.3663 6.4449 10.574-11.916 3.6487 3.702 11.794-12.452 0.719 0.7439 12.328z" fill="url(#y)"/>
 <path d="m150.12 17.896l-7.6927 9.7638-9.7908-7.6715-5.1497 11.285-11.38-5.1355-1.7166 9.3834c47.44 7.1102 84.016 47.578 85.002 96.624l10.744-0.634-3.751-11.793 11.952-3.6139-6.4212-10.588 10.681-6.3401-8.8371-8.7494 8.8371-8.7494-10.681-6.4035 6.4848-10.525-11.889-3.6773 3.751-11.793-12.461-0.7608 0.7629-12.3-12.27 2.219-2.2252-12.173-11.38 5.0721-5.0861-11.285-9.8543 7.6082-7.6292-9.7638z" fill="url(#ac)"/>
</svg>
